<?xml version="1.0" encoding="UTF-8" standalone="no"?>
<svg
   xmlns:dc="http://purl.org/dc/elements/1.1/"
   xmlns:cc="http://creativecommons.org/ns#"
   xmlns:rdf="http://www.w3.org/1999/02/22-rdf-syntax-ns#"
   xmlns:svg="http://www.w3.org/2000/svg"
   xmlns="http://www.w3.org/2000/svg"
   viewBox="0 0 343 245"
   height="245"
   width="343"
   id="svg3735"
   version="1.1">
  <metadata
     id="metadata3741">
    <rdf:RDF>
      <cc:Work
         rdf:about="">
        <dc:format>image/svg+xml</dc:format>
        <dc:type
           rdf:resource="http://purl.org/dc/dcmitype/StillImage" />
        <dc:title></dc:title>
      </cc:Work>
    </rdf:RDF>
  </metadata>
  <defs
     id="defs3739" />
  <path
     id="path3745"
     d="m 200.54688,224.75 -0.39034,-1.25 -0.55367,-18.5 -0.55367,-18.5 -0.65627,-4.25 -0.65627,-4.25 -13.61833,0.011 -13.61833,0.011 -3.61415,0.59779 -3.61416,0.59779 -2.82514,11.41144 -2.82515,11.41144 -1.0607,-0.35145 -1.0607,-0.35145 -0.28572,-10.23523 -0.28571,-10.23523 -1.67838,0.32322 -1.67837,0.32323 -0.88525,3.74322 -0.88525,3.74322 h -1.42541 -1.42541 l -0.9505,-2.5 -0.9505,-2.5 h -1.32159 -1.32159 l -11.95316,4.02479 -11.95316,4.02479 -22.767877,6.53991 -22.767878,6.5399 L 70.232123,204.8147 67.5,204.5 v -1 -1 l 2.5,-0.28355 2.5,-0.28356 9.5,-2.56665 9.5,-2.56665 8.5,-2.49351 8.5,-2.49351 17.5,-5.53381 17.5,-5.53382 0.16801,-0.12382 0.16802,-0.12381 -1.39146,-5.36419 -1.39145,-5.36419 -0.93074,-1.13446 -0.93074,-1.13447 -0.34582,-2.5 -0.34582,-2.5 -4,-0.5 -4,-0.5 -0.30796,-4.82769 -0.30797,-4.8277 1.18041,-1.4223 L 132.24489,149 h 1.91309 1.91309 l 1.92893,4.5 1.92893,4.5 h 1.03741 1.03741 l 8.2572,-2.86107 8.25719,-2.86106 5.19955,-2.63481 5.19956,-2.63482 1.02098,-3.75412 1.02099,-3.75412 1.51779,-6.32061 1.51778,-6.3206 -0.99739,-1.86365 L 172,123.13148 v -8.18152 -8.18153 l 1.6542,-5.13422 1.6542,-5.13421 2.05007,-3.999593 2.05006,-3.999593 3.79143,-5.000407 3.79143,-5.000407 0.004,-1.20014 0.004,-1.200141 2.87961,-5.212397 2.87961,-5.212397 2.465,-3.087462 2.465,-3.087463 2.90539,-1.463964 2.90539,-1.463964 2.71951,-1.832421 2.71951,-1.832421 6.70079,0.296385 6.7008,0.296385 0.41303,1.25 0.41303,1.25 h -5.94287 -5.94287 L 205.38985,59.048806 199.5,62.097612 196,67.298806 192.5,72.5 l -0.76974,1.89046 -0.76973,1.89046 -1.65016,3.60954 -1.65017,3.60954 -3.1555,4 -3.1555,4 -1.54909,3 -1.5491,3 -1.63045,5 -1.63045,5 0.005,7.40499 0.005,7.40499 1.82874,-1.65499 L 178.65759,119 h 1.12037 1.12037 l 2.46739,3.25 2.4674,3.25 1.69207,4.25 1.69208,4.25 h 0.40168 0.40167 l 5.23975,-3.66906 5.23974,-3.66906 4,-3.06536 4,-3.06536 6.61711,-6.01558 6.6171,-6.01558 6.57727,-5.77701 6.57727,-5.777017 4.80563,-3.753441 4.80562,-3.753441 7.38502,-5.328886 7.38501,-5.328885 4.11499,-1.868698 4.11498,-1.868698 6.52749,-0.02196 6.5275,-0.02196 2.2225,1.556704 2.22251,1.556704 v 5.207413 5.207413 l -1.87051,5.117505 -1.87052,5.117505 -3.24534,4.716942 -3.24534,4.71694 -5.13414,4.89115 -5.13415,4.89115 -0.65539,0.0103 -0.65538,0.0103 -4.17897,3.49143 -4.17896,3.49142 -8.66565,4.10263 -8.66565,4.10263 -4,1.51222 -4,1.51222 -7,1.39255 -7,1.39254 -12.25,0.001 L 191,139 v 1.02196 1.02195 l 2.90229,6.40088 2.9023,6.40087 1.5977,7.02458 1.59771,7.02457 v 2.99358 2.99358 l 0.84538,0.52247 0.84538,0.52248 3.94241,0.63041 3.9424,0.63042 1.71222,-5.43177 L 213,165.32422 v -3.03967 -3.03966 l 1.34201,-1.11377 1.34201,-1.11377 0.65799,0.65799 0.65799,0.65799 v 9.62593 9.62593 l 4.28827,1.14694 4.28827,1.14693 2.71173,2.13305 2.71173,2.13305 v 1.96786 1.96786 l -8.25,-0.29044 -8.25,-0.29044 -0.31037,-3.75 -0.31036,-3.75 h -0.81183 -0.81182 l -0.57874,3.75 -0.57874,3.75 -0.69111,11.24544 -0.69111,11.24543 -1.35796,1.12701 L 207,212.24489 v 1.16611 1.16612 l -2,3.92288 -2,3.92288 V 224.21144 226 h -1.03138 -1.03139 z m 4.90575,-14.75 1.24616,-1.5 1.13067,-14.4366 1.13067,-14.43661 -0.35616,-0.35616 -0.35616,-0.35616 -3.77993,-0.61339 -3.77992,-0.6134 0.67505,5.90616 0.67504,5.90616 0.67955,13 0.67954,13 0.40467,-2 0.40467,-2 z M 159.41265,182.75 160.09063,179 H 159.04531 158 v 4.16667 4.16666 l 0.36734,-0.41666 0.36734,-0.41667 z M 227,184.44897 v -0.55102 L 223.53212,182.44897 220.06424,181 H 218.53212 217 v 2 2 h 5 5 z m -78,-7.38226 v -1.81526 l 1.37455,-3.89589 1.37455,-3.8959 0.70271,-5.10929 0.70271,-5.10929 -5.93172,2.07802 -5.93171,2.07802 0.44367,2.05144 0.44366,2.05144 1.32687,3 1.32686,3 1.13272,4.27886 1.13271,4.27887 0.95121,-0.58788 L 149,178.88197 Z m 5.92392,-4.31671 -0.0761,-5.25 -1.34784,3.5 -1.34784,3.5 -0.0761,1.75 L 152,178 h 1.5 1.5 l -0.0761,-5.25 z m 58.73836,1 -0.50439,-1.25 v 2.5 2.5 l 0.50439,-1.25 0.50439,-1.25 z m -51.7162,-1.5 1.02317,-3.75 2.41583,-8.73191 2.41583,-8.73191 -2.15046,1.05512 -2.15045,1.05511 -3,1.5167 -3,1.5167 0.31641,9.91009 0.31642,9.9101 h 1.39504 1.39504 z m 35.73097,2.36341 0.17705,-0.13418 -1.46194,-8.4244 -1.46194,-8.42441 -2.52847,-6.06521 -2.52847,-6.06521 -1.0851,-3 -1.08509,-3 -0.35549,-0.42061 -0.35549,-0.42061 -2.36509,2.22189 -2.3651,2.22189 -5.35338,2.76626 -5.35338,2.76626 -3.21711,11.43246 -3.21711,11.43246 -0.54436,2.10992 -0.54437,2.10993 16.7339,-0.48613 L 197.5,174.7476 Z M 135.6939,156 134.56152,153 H 133.78076 133 v 3 3 h 1.91314 1.91313 z m 43.24191,-14.45948 3.89607,-2.45948 0.58882,-0.95272 0.58881,-0.95273 -4.00409,-3.1713 -4.0041,-3.1713 -0.4117,1.3335 -0.4117,1.33351 -1.08896,4.69282 L 173,142.88564 V 143.44282 144 h 1.01987 1.01987 z M 222.5,134.6051 l 7,-1.39255 4,-1.49846 4,-1.49845 7.18515,-3.47045 7.18515,-3.47045 7.31485,-5.51 7.31485,-5.50999 4.64303,-4.97017 4.64302,-4.97017 1.57046,-3.036932 1.57046,-3.036932 1.52196,-4.370273 L 281.97089,87.5 281.98545,83.356989 282,79.213978 280.41821,78.606989 278.83643,78 h -5.33531 -5.33531 l -4.3329,2.011436 -4.33291,2.011437 -4,3.019285 -4,3.019286 -2.5,1.708028 -2.5,1.708027 -5.5,4.412354 -5.5,4.412357 -5.83317,5.09889 -5.83317,5.0989 -6.69591,6.20078 -6.6959,6.20078 -3.47093,2.52286 -3.47092,2.52287 -5.25,3.66793 -5.25,3.66794 V 135.64158 136 l 11.25,-0.001 11.25,-0.001 7,-1.39254 z m -38.03792,-4.3551 -1.56476,-3.75 -1.49259,-2.28187 -1.49259,-2.28186 -0.95607,0.59088 L 178,123.11803 v 2.49736 2.49735 l 3.22286,2.94363 3.22286,2.94363 h 0.79056 0.79056 z"
     style="fill:#000000" />
</svg>
